<svg xmlns="http://www.w3.org/2000/svg" viewBox="0 0 44 44"><defs><style>.cls-1{fill:#131313;opacity:0.48;}</style></defs><title>sm-twit</title><g id="Layer_2" data-name="Layer 2"><g id="Layer_3" data-name="Layer 3"><path class="cls-1" d="M22,0A22,22,0,1,0,44,22,22,22,0,0,0,22,0ZM33.47,18A14.42,14.42,0,0,1,11.28,30.85a10.19,10.19,0,0,0,7.51-2.1,5.07,5.07,0,0,1-4.74-3.52,5.07,5.07,0,0,0,2.29-.09,5.08,5.08,0,0,1-4.07-5,5,5,0,0,0,2.3.63A5.08,5.08,0,0,1,13,14a14.39,14.39,0,0,0,10.45,5.3,5.07,5.07,0,0,1,8.64-4.63,10.16,10.16,0,0,0,3.22-1.23,5.08,5.08,0,0,1-2.23,2.81,10.13,10.13,0,0,0,2.91-.8A10.28,10.28,0,0,1,33.47,18Z"/></g></g></svg>