<svg xmlns="http://www.w3.org/2000/svg" viewBox="0 0 44 44"><defs><style>.cls-1{opacity:0.48;}.cls-2{fill:#131313;}</style></defs><title>sm-insta</title><g id="Layer_2" data-name="Layer 2"><g id="Layer_3" data-name="Layer 3"><g class="cls-1"><circle class="cls-2" cx="22.02" cy="22.46" r="4.24"/><path class="cls-2" d="M31.94,15a4.21,4.21,0,0,0-2.41-2.41,7,7,0,0,0-2.36-.44C25.82,12,25.42,12,22,12s-3.8,0-5.14.07a7,7,0,0,0-2.36.44A4.21,4.21,0,0,0,12.11,15a7,7,0,0,0-.44,2.36c-.06,1.34-.07,1.74-.07,5.14s0,3.8.07,5.14A7,7,0,0,0,12.11,30a4.21,4.21,0,0,0,2.41,2.41,7,7,0,0,0,2.36.44c1.34.06,1.74.07,5.14.07s3.8,0,5.14-.07a7,7,0,0,0,2.36-.44A4.21,4.21,0,0,0,31.94,30a7,7,0,0,0,.44-2.36c.06-1.34.07-1.74.07-5.14s0-3.8-.07-5.14A7,7,0,0,0,31.94,15ZM22,29a6.53,6.53,0,1,1,6.53-6.53A6.53,6.53,0,0,1,22,29ZM28.81,17.2a1.53,1.53,0,1,1,1.53-1.53A1.53,1.53,0,0,1,28.81,17.2Z"/><path class="cls-2" d="M22,0A22,22,0,1,0,44,22,22,22,0,0,0,22,0ZM34.67,27.7a9.33,9.33,0,0,1-.59,3.09,6.5,6.5,0,0,1-3.72,3.72,9.33,9.33,0,0,1-3.09.59c-1.36.06-1.79.08-5.24.08s-3.89,0-5.24-.08a9.33,9.33,0,0,1-3.09-.59A6.5,6.5,0,0,1,10,30.79a9.34,9.34,0,0,1-.59-3.09c-.06-1.36-.08-1.79-.08-5.24s0-3.89.08-5.24A9.34,9.34,0,0,1,10,14.13a6.5,6.5,0,0,1,3.72-3.72,9.34,9.34,0,0,1,3.09-.59c1.36-.06,1.79-.08,5.24-.08s3.89,0,5.24.08a9.34,9.34,0,0,1,3.09.59,6.5,6.5,0,0,1,3.72,3.72,9.33,9.33,0,0,1,.59,3.09c.06,1.36.08,1.79.08,5.24S34.73,26.35,34.67,27.7Z"/></g></g></g></svg>