<?xml version="1.0" encoding="UTF-8" standalone="no"?><!DOCTYPE svg PUBLIC "-//W3C//DTD SVG 1.1//EN" "http://www.w3.org/Graphics/SVG/1.1/DTD/svg11.dtd"><svg width="100%" height="100%" viewBox="0 0 20 27" version="1.1" xmlns="http://www.w3.org/2000/svg" xmlns:xlink="http://www.w3.org/1999/xlink" xml:space="preserve" style="fill-rule:evenodd;clip-rule:evenodd;stroke-linejoin:round;stroke-miterlimit:1.41421;"><path d="M9.832,0c-5.392,0.004 -9.828,4.44 -9.832,9.833l0,16.694l7.62,0l0,-5.392l4.402,0l0,5.422l7.635,0l0,-16.725c-0.004,-5.389 -4.435,-9.824 -9.825,-9.832l0,0Zm2.73,18.548l-0.562,0.952l-4.298,0l-0.57,-0.93l-2.25,0l2.25,-4.095l0,-2.535c-0.018,-1.716 0.507,-3.394 1.5,-4.793l1.208,-1.642l1.207,1.642c0.994,1.399 1.519,3.077 1.5,4.793l0,2.512l2.25,4.095l-2.235,0Z" style="fill:#fff;fill-rule:nonzero;"/></svg>