<svg xmlns="http://www.w3.org/2000/svg" viewBox="0 0 131.28 47.84"><defs><style>.cls-1{fill:#fff;}</style></defs><title>logo</title><g id="Layer_2" data-name="Layer 2"><g id="Layer_1-2" data-name="Layer 1"><g id="logo"><path class="cls-1" d="M56.38,11.3H47.87v2.78l-1.49-1.31a8.78,8.78,0,0,0-5.74-2.07C33.76,10.7,29,16,29,23.54,29,30.82,33.8,35.9,40.75,35.9a9,9,0,0,0,5.72-2l1.47-1.22v4.19c0,.05,0,.1,0,.15h0c0,2.54-2,4.39-4.85,4.39-2.52,0-4.38-1.39-4.77-3.55l0-.1H29.73A9.86,9.86,0,0,0,33.43,45a14.83,14.83,0,0,0,9.26,2.87h.75A14.7,14.7,0,0,0,52.67,45a10,10,0,0,0,3.71-8.11ZM41.87,28.58a5.23,5.23,0,1,1,5.23-5.23A5.24,5.24,0,0,1,41.87,28.58Z"/><path class="cls-1" d="M72.41,10A13.34,13.34,0,1,0,85.75,23.3,13.36,13.36,0,0,0,72.41,10Zm0,18.62a5.23,5.23,0,1,1,5.23-5.23A5.24,5.24,0,0,1,72.41,28.58Z"/><path class="cls-1" d="M131.28,35.37v-24h-8.51V14.9l-1.54-1.61a8.89,8.89,0,0,0-6.13-2.6c-6.75,0-11.64,5.3-11.64,12.6s4.9,12.6,11.64,12.6a8.92,8.92,0,0,0,6.13-2.55l1.54-1.59v3.61Zm-15.1-6.79a5.23,5.23,0,1,1,5.23-5.23A5.24,5.24,0,0,1,116.18,28.58Z"/><path class="cls-1" d="M101.83,18.51h.34V10.74a8.68,8.68,0,0,0-5,2.21l-1.51,1.43V11.32H88.48v24H97v-12A4.84,4.84,0,0,1,101.83,18.51Z"/><path class="cls-1" d="M13.11,0A13.12,13.12,0,0,0,0,13.11V35.37H10.16V28.18l5.87,0v7.23H26.21V13.11A13.12,13.12,0,0,0,13.11,0Zm3.64,24.73L16,26H10.27l-.76-1.24h-3l3-5.46V15.92a10.83,10.83,0,0,1,2-6.39l1.61-2.19,1.61,2.19a10.83,10.83,0,0,1,2,6.39v3.35l3,5.46Z"/></g></g></g></svg>