<svg xmlns="http://www.w3.org/2000/svg" viewBox="0 0 31.04 27.41"><defs><style>.cls-1{fill:#fff;}.cls-2{font-size:8.23px;fill:#651fff;font-family:Montserrat-Bold, Montserrat;font-weight:700;letter-spacing:0.02em;}.cls-3,.cls-4{font-size:9.57px;}.cls-3{letter-spacing:-0.03em;}.cls-4{letter-spacing:0.02em;}.cls-5{font-size:11.17px;font-family:Montserrat-SemiBold, Montserrat;letter-spacing:0.02em;}</style></defs><title>img-offer</title><g id="Layer_2" data-name="Layer 2"><g id="Layer_1-2" data-name="Layer 1"><path class="cls-1" d="M25.38,21.34c-7.89.14-11.83.14-19.72,0A5.75,5.75,0,0,1,.09,15.87C0,11.75,0,9.69.09,5.57A5.75,5.75,0,0,1,5.66.11C13.55,0,17.49,0,25.38.11A5.75,5.75,0,0,1,31,5.57c.12,4.12.12,6.18,0,10.3A5.75,5.75,0,0,1,25.38,21.34Z"/><text class="cls-2" transform="translate(4.1 13.92)">$<tspan class="cls-3" x="5.39" y="0.46">2</tspan><tspan class="cls-4" x="10.9" y="0.46">0</tspan><tspan class="cls-5" x="17.69" y="0.46">?</tspan></text><polygon class="cls-1" points="27.18 27.41 19.18 19.52 24.78 19.52 27.18 27.41"/></g></g></svg>