<svg xmlns="http://www.w3.org/2000/svg" viewBox="0 0 28.51 28.33"><defs><style>.cls-1,.cls-3{fill:#fff;}.cls-2,.cls-6{fill:#651fff;}.cls-3{font-size:5.2px;letter-spacing:0.02em;}.cls-3,.cls-6{font-family:Montserrat-Bold, Montserrat;font-weight:700;}.cls-4{letter-spacing:-0.04em;}.cls-5{letter-spacing:0.02em;}.cls-6{font-size:18.01px;letter-spacing:0.02em;}</style></defs><title>img event</title><g id="Layer_2" data-name="Layer 2"><g id="Layer_1-2" data-name="Layer 1"><path class="cls-1" d="M24.81,27.51c-8.45.25-12.67.25-21.12,0A3.67,3.67,0,0,1,.19,24c-.25-8.13-.25-12.19,0-20.32A3.67,3.67,0,0,1,3.7.19c8.45-.25,12.67-.25,21.12,0a3.67,3.67,0,0,1,3.51,3.5c.25,8.13.25,12.19,0,20.32A3.67,3.67,0,0,1,24.81,27.51Z"/><path class="cls-2" d="M28.43,8.16Q14.26,7.9.08,8.16c0-1.79.05-2.68.11-4.47A3.67,3.67,0,0,1,3.7.19c8.45-.25,12.67-.25,21.12,0a3.67,3.67,0,0,1,3.51,3.5C28.37,5.47,28.39,6.37,28.43,8.16Z"/><text class="cls-3" transform="translate(7.77 6.24)">JU<tspan class="cls-4" x="7.01" y="0">L</tspan><tspan class="cls-5" x="9.75" y="0">Y</tspan></text><text class="cls-6" transform="translate(8.93 23.83)">3</text></g></g></svg>