<svg xmlns="http://www.w3.org/2000/svg" viewBox="0 0 30.92 30.92"><defs><style>.cls-1{fill:#651fff;}.cls-2{fill:#fff;}</style></defs><title>img-find</title><g id="Layer_2" data-name="Layer 2"><g id="Layer_1-2" data-name="Layer 1"><path class="cls-1" d="M8.55,26.43C4.49,26.43,0,30.92,0,30.92s4.49-4.63,4.49-8.55a4.06,4.06,0,1,1,4.06,4.06Z"/><path class="cls-2" d="M15.4,23.7l-2.26.54L6.69,17.78l.54-2.26L3.81,12.11l9.57-2.74,3.78-3.78A17.28,17.28,0,0,1,26.63.65L30.92,0l-.65,4.29a17.28,17.28,0,0,1-4.94,9.47l-3.78,3.78-2.74,9.57Z"/><path class="cls-2" d="M15.4,23.7l-2.26.54L6.69,17.78l.54-2.26L3.81,12.11l9.57-2.74,3.78-3.78A17.28,17.28,0,0,1,26.63.65L30.92,0l-.65,4.29a17.28,17.28,0,0,1-4.94,9.47l-3.78,3.78-2.74,9.57Z"/><polygon class="cls-2" points="8.29 22.64 9.68 19.27 11.65 21.25 8.29 22.64"/><circle class="cls-1" cx="22.68" cy="8.25" r="1.63" transform="translate(0.81 18.45) rotate(-45)"/></g></g></svg>